# xmcd
#
# Track frame offsets:
#	183
#	24708
#	48595
#	69223
#	80025
#	93265
#	116705
#	133653
#	150395
#	165040
#	190870
#	223953
#
# Disc length: 3219 seconds
#
# Revision: 1
# Processed by: cddbd v1.5.2PL0 Copyright (c) Steve Scherf et al.
# Submitted via: audiograbber 1.83.01
#
DISCID=9c0c910c
DTITLE=Pankow - Freiheit Fuer Die Sklaven 
DYEAR=1987
DGENRE=EBM
TTITLE0=Gimme More (Much More) 
TTITLE1=Girls And Boys 
TTITLE2=She's Gotta Be Mine
TTITLE3=In Heaven (Everything Is Fine)
TTITLE4=Nice Bottom (Schoener Arsch)
TTITLE5=Sickness Takin' Over 
TTITLE6=Touch (I'm Your Bastard) 
TTITLE7=Freiheit Fuer Die Sklaven 
TTITLE8=Nice Bottom (Nice Dub)
TTITLE9=Gimme More (Much More)
TTITLE10=Girls'n Boys (Hard Dub)
TTITLE11=Touch (I'm Your Bastard)
EXTD=
EXTT0=
EXTT1=
EXTT2=
EXTT3=
EXTT4=
EXTT5=
EXTT6=
EXTT7=
EXTT8=
EXTT9=
EXTT10=
EXTT11=
PLAYORDER=
